<?xml version="1.0" encoding="utf-8"?>
<!-- Generator: Adobe Illustrator 27.3.1, SVG Export Plug-In . SVG Version: 6.00 Build 0)  -->
<svg version="1.1" id="Layer_1" xmlns="http://www.w3.org/2000/svg" xmlns:xlink="http://www.w3.org/1999/xlink" x="0px" y="0px"
	 viewBox="0 0 45 45" style="enable-background:new 0 0 45 45;" xml:space="preserve">
<style type="text/css">
	.st0{stroke:#0066E1;stroke-miterlimit:10;}
	.st1{fill:none;stroke:#FFFFFF;stroke-width:1.5;stroke-linecap:round;stroke-linejoin:round;}
</style>
<path class="st0" d="M41.8,12c0-1.5-1.2-2.8-2.8-2.8s-2.8,1.2-2.8,2.8c0,0.8,0.4,1.6,1,2.1l-5.5,8.5l-0.2-10.9
	c1.3-0.2,2.3-1.3,2.3-2.7c0-1.5-1.2-2.8-2.8-2.8S28.2,7.5,28.2,9c0,1,0.6,1.9,1.5,2.4l-4,10.4l-2.3-11.2c1.1-0.4,1.9-1.4,1.9-2.6
	c0-1.5-1.2-2.8-2.8-2.8S19.8,6.5,19.8,8c0,1.2,0.8,2.2,1.9,2.6l-2.3,11.2l-4-10.4c0.9-0.5,1.5-1.4,1.5-2.4c0-1.5-1.2-2.8-2.8-2.8
	S11.2,7.5,11.2,9c0,1.4,1,2.5,2.3,2.7l-0.2,10.9l-5.5-8.5c0.6-0.5,1-1.2,1-2.1c0-1.5-1.2-2.8-2.8-2.8S3.2,10.5,3.2,12
	c0,1.5,1.2,2.7,2.7,2.7l2.3,11.4c0,1.4,0.7,2.1,1.4,2.7c0.4,0.4,0.9,0.8,1.3,1.6c0.1,0.2,0.3,0.4,0.4,0.5c0.4,0.6,0.4,0.6,0.1,1.9
	l0,0.2c-1.1,0.8-1.2,2-1.1,2.7c-0.5,0.6-0.7,1.1-0.6,1.7c0.1,1,0.9,1.6,1,1.6c0.1,0,0.1,0,0.2,0.1l0,0c3.8,1.3,7.8,2,11.7,2
	c4,0,8-0.7,11.7-2l0,0c0.1,0,0.1,0,0.2-0.1c0.1-0.1,0.9-0.6,1-1.6c0.1-0.6-0.1-1.2-0.6-1.7c0.1-0.7-0.1-1.9-1.1-2.7l0-0.2
	c-0.3-1.3-0.3-1.3,0.1-1.9c0.1-0.1,0.2-0.3,0.3-0.5c0,0,0,0,0-0.1c0,0,0,0,0-0.1c0.4-0.7,0.8-1.1,1.2-1.5c0.6-0.6,1.3-1.3,1.4-2.7
	L39,14.7C40.5,14.7,41.8,13.5,41.8,12z"/>
<g>
	<path class="st1" d="M12.1,28.7c6.7-2.3,14.1-2.3,20.8,0"/>
	<path class="st1" d="M13.4,31h18.1"/>
	<path class="st1" d="M12.5,33.7c6.5,2.1,13.5,2.1,19.9,0"/>
	<path class="st1" d="M11.6,36.4c7,2.6,14.7,2.6,21.7,0"/>
</g>
</svg>
